<?xml version="1.0" ?><svg data-name="Layer 1" id="Layer_1" viewBox="0 0 64 64" xmlns="http://www.w3.org/2000/svg"><defs><style>.cls-1{fill:#09816c;}.cls-2{fill:#4fbe9f;}.cls-3{fill:#fff;}</style></defs><title/><path class="cls-1" d="M40.89,29.45,55.54,44.1a1.74,1.74,0,0,1,.5,1.27l-.31,8.71a1.71,1.71,0,0,1-1.65,1.65L45.37,56a1.74,1.74,0,0,1-1.27-.5l-4.36-4.36a.34.34,0,0,1,0-.49l.65-.65a.36.36,0,0,0,0-.49l-1.3-1.29a.34.34,0,0,0-.49,0L38,48.9a.34.34,0,0,1-.49,0L36.6,48a.34.34,0,0,1,0-.49l.89-.89-.89-.9-.89.89a.34.34,0,0,1-.49,0l-1.39-1.38a.35.35,0,0,1,0-.5l.64-.64a.34.34,0,0,0,0-.49l-2.19-2.19a.34.34,0,0,0-.49,0l-.64.64a.34.34,0,0,1-.49,0l-1.21-1.2a2.9,2.9,0,0,0-2.52-.8A16,16,0,1,1,40.08,27,2.87,2.87,0,0,0,40.89,29.45Z"/><circle class="cls-2" cx="24.33" cy="24.33" r="15.99"/><path class="cls-3" d="M24.73,18.44a4.45,4.45,0,1,0,0,6.29A4.46,4.46,0,0,0,24.73,18.44Z"/></svg>